<?xml version="1.0" encoding="iso-8859-1"?><!-- Generator: Adobe Illustrator 21.1.0, SVG Export Plug-In . SVG Version: 6.00 Build 0)  --><svg xmlns="http://www.w3.org/2000/svg" xmlns:xlink="http://www.w3.org/1999/xlink" viewBox="0 0 48 48" width="48px" height="48px"><polygon style="fill:#F57C00;" points="14.125,35.188 4.438,27.563 9.25,18.625 23.062,24 "/><polygon style="fill:#1E88E5;" points="44,14.688 43.25,37.813 27.875,44 18.625,38 32.125,24 "/><polygon style="fill:#2962FF;" points="44,14.688 31.812,29.063 26.25,11 31.563,4.625 "/><polygon style="fill:#AB47BC;" points="34.688,19.625 23.25,37.188 7.25,43 9.813,34 13.125,22.875 "/><polygon style="fill:#E91E63;" points="13.125,22.875 4,19.813 9.813,4 22.313,5.5 34.688,19.625 "/><rect x="11" y="11" style="fill:#000001;" width="25" height="25"/><rect x="14" y="31.5" style="fill:#FFFFFF;" width="9" height="1.5"/><polygon style="fill:#FFFFFF;" points="20.5,15.875 20.5,14 15.5,14 15.5,15.875 17,15.875 17,22.375 15.5,22.375 15.5,24.25   20.5,24.25 20.5,22.375 19.159,22.375 19.159,15.875 "/><path style="fill:#FFFFFF;" d="M25.375,24.5c-1.875,0-2.871-1.098-3.25-1.548l1.411-1.605c0.255,0.282,0.964,1.028,1.839,1.028  c1.125,0,1.375-1.125,1.375-1.75V14H29v6.625c0,0.624,0,1.625-0.75,2.625C27.725,23.95,26.5,24.5,25.375,24.5z"/></svg>